<svg width="156" height="156" viewBox="0 0 156 156" fill="none" xmlns="http://www.w3.org/2000/svg">
<circle cx="138" cy="102" r="4" fill="#554737"/>
<path d="M19.1318 34.5L19.2754 34.7539L42.002 74.9863L64.9658 34.752L65.1094 34.5H69.4521V105.5H14.5V34.5H19.1318ZM44.4355 79.2461L44.292 79.5H39.708L39.5645 79.2461L18.5 41.9043V101.5H65.5V41.9043L44.4355 79.2461Z" fill="#554737" stroke="#554737"/>
<path d="M105.552 34.5C109.769 34.5 113.643 35.2144 117.165 36.6494H117.164C120.67 38.0138 123.874 39.97 126.367 42.6602C129.186 45.7013 130.431 47.7429 131.947 50.7764C133.074 53.0298 133.5 55.1876 133.5 58V58.5H129.514L129.5 58.0137C129.47 56.9093 129.116 55.5936 128.692 54.4053C128.271 53.2254 127.797 52.2113 127.553 51.7236C126.077 48.7721 124.834 47.1669 123.134 45.3408V45.3398C118.954 40.9768 112.794 38.5 105.552 38.5C101.319 38.5 96.8635 39.3151 93.2529 41.4316L93.251 41.4326C89.7026 43.4869 87.0811 46.5861 84.9316 50.2529L84.9297 50.2559C82.7978 53.8299 81.5 58.2941 81.5 62.5518V75.5283C81.5001 79.7034 82.5265 83.1935 83.6953 86.0068L83.9307 86.5605L83.9316 86.5625C85.6927 90.6506 88.2273 94.0297 91.792 96.5938C95.2565 99.0857 99.28 101.13 103.498 101.566L103.42 70.0449L103.419 69.5439H133.5V76.542C133.5 80.6654 133.089 84.3269 131.844 87.6064C129.824 93.0146 126.432 97.3541 121.675 100.612C116.916 103.872 111.536 105.5 105.552 105.5C99.888 105.5 94.7049 103.968 90.0146 100.906L90.0078 100.902C85.3845 97.7767 81.9944 93.6371 79.8447 88.4932L79.5596 87.7988C78.1818 84.2894 77.5 80.1955 77.5 75.5283V62.5518C77.5 57.4745 78.7381 52.7802 81.2148 48.4785L81.2178 48.4736L81.7041 47.6787C84.1884 43.7559 87.4479 40.6312 91.4785 38.3105C95.7795 35.7702 100.474 34.5 105.552 34.5ZM107.5 101.567C111.865 101.128 116.759 99.0134 120.211 96.5918L120.881 96.1045C124.16 93.6385 126.452 90.744 128.036 86.8135C129.153 83.8929 129.5 80.2531 129.5 76.5V73.5H107.5V101.567Z" fill="#554737" stroke="#554737"/>
<rect x="14" y="118" width="128" height="4" fill="#554737"/>
</svg>
